<?xml version="1.0" encoding="UTF-8" standalone="no"?><!-- Generator: Gravit.io --><svg xmlns="http://www.w3.org/2000/svg" xmlns:xlink="http://www.w3.org/1999/xlink" style="isolation:isolate" viewBox="-1183.609 2605.442 312.675 263.481" width="312.675pt" height="263.481pt"><path d=" M -1029.649 2608.443 C -1062.076 2616.977 -1082.214 2631.313 -1099.622 2658.619 C -1105.766 2668.177 -1109.862 2676.71 -1108.838 2677.734 C -1107.814 2678.758 -1094.844 2677.393 -1080.508 2674.321 C -1024.87 2662.715 -949.094 2664.081 -898.918 2677.393 C -881.169 2681.83 -880.828 2681.83 -883.217 2674.662 C -890.385 2651.11 -925.542 2618.683 -952.166 2610.833 C -972.646 2604.689 -1011.217 2603.665 -1029.649 2608.443 L -1029.649 2608.443 L -1029.649 2608.443 Z  M -1082.556 2735.419 C -1082.556 2736.785 -1080.166 2741.905 -1077.436 2747.707 C -1070.268 2761.019 -1053.201 2771.259 -1037.5 2771.259 C -1023.846 2771.259 -1007.462 2765.115 -1007.462 2760.337 C -1007.462 2756.241 -1033.745 2745.318 -1058.321 2738.833 C -1080.508 2733.03 -1082.556 2733.03 -1082.556 2735.419 L -1082.556 2735.419 Z  M -920.422 2727.91 L -899.942 2732.006 L -898.918 2749.414 C -897.894 2766.481 -898.577 2767.505 -912.23 2779.451 C -920.081 2785.937 -933.052 2794.129 -940.902 2797.201 C -954.556 2802.321 -955.921 2802.321 -969.233 2795.494 C -986.982 2786.619 -1002.342 2786.278 -1023.164 2795.153 L -1039.206 2801.979 L -1054.566 2794.811 C -1063.1 2790.715 -1075.046 2782.865 -1081.19 2777.062 C -1091.772 2768.187 -1092.796 2765.457 -1092.796 2749.073 L -1092.796 2730.982 L -1069.585 2727.227 C -1056.956 2725.179 -1040.572 2722.79 -1033.062 2722.107 C -1011.558 2720.059 -942.95 2723.473 -920.422 2727.91 L -920.422 2727.91 L -920.422 2727.91 L -920.422 2727.91 Z  M -1038.182 2682.513 C -1112.934 2692.753 -1120.102 2696.166 -1120.102 2719.718 C -1120.102 2733.03 -1120.785 2733.713 -1141.265 2744.635 C -1158.673 2753.851 -1164.476 2759.313 -1173.35 2774.673 C -1179.494 2784.913 -1183.932 2793.787 -1183.59 2794.47 C -1182.908 2794.811 -1175.74 2791.398 -1167.548 2786.961 C -1144.678 2774.331 -1116.689 2764.091 -1116.689 2768.187 C -1116.689 2770.235 -1123.174 2779.793 -1131.025 2789.009 C -1141.948 2801.979 -1146.385 2811.195 -1149.798 2827.238 C -1156.625 2859.665 -1155.601 2863.078 -1144.337 2847.718 C -1139.217 2840.55 -1128.636 2827.579 -1121.126 2819.387 L -1107.814 2804.027 L -1099.622 2820.411 C -1092.796 2835.089 -1089.041 2838.161 -1064.806 2850.107 C -1012.582 2875.025 -980.838 2875.366 -927.249 2850.107 C -900.284 2837.478 -899.601 2836.795 -890.385 2816.315 C -874.001 2779.793 -866.15 2726.203 -874.001 2705.382 C -877.414 2696.507 -885.606 2693.777 -929.297 2686.267 C -959.334 2681.147 -1013.606 2679.099 -1038.182 2682.513 L -1038.182 2682.513 L -1038.182 2682.513 L -1038.182 2682.513 Z  M -949.094 2744.977 C -966.844 2750.779 -982.204 2757.947 -982.886 2759.995 C -985.958 2770.577 -944.998 2775.014 -930.662 2765.798 C -923.153 2760.678 -908.476 2741.222 -908.476 2735.761 C -908.476 2732.006 -916.668 2733.713 -949.094 2744.977 Z " fill-rule="evenodd" fill="rgb(0,0,0)"/></svg>